<svg width="400" height="80" viewBox="0 0 400 80" fill="none" xmlns="http://www.w3.org/2000/svg">
<path d="M97.1 65V38.42H93.5V31.58H97.1V30.32C97.1 26.48 98.06 23.6 99.98 21.68C101.94 19.76 104.68 18.8 108.2 18.8C109.32 18.8 110.34 18.92 111.26 19.16C112.22 19.4 112.96 19.72 113.48 20.12V27.08C112.48 26.32 111.26 25.94 109.82 25.94C106.94 25.94 105.5 27.54 105.5 30.74V31.58H113.6V38.42H105.5V65H97.1ZM118.65 65V31.58H127.05V65H118.65ZM122.85 28.64C121.45 28.64 120.25 28.14 119.25 27.14C118.25 26.1 117.75 24.88 117.75 23.48C117.75 22.08 118.25 20.88 119.25 19.88C120.25 18.84 121.45 18.32 122.85 18.32C124.25 18.32 125.45 18.84 126.45 19.88C127.49 20.88 128.01 22.08 128.01 23.48C128.01 24.88 127.49 26.1 126.45 27.14C125.45 28.14 124.25 28.64 122.85 28.64ZM144.569 48.14V65H136.169V31.58H144.569V36.68C145.449 34.92 146.549 33.54 147.869 32.54C149.189 31.5 150.629 30.98 152.189 30.98C153.469 30.98 154.389 31.26 154.949 31.82V40.82C153.709 40.1 152.429 39.74 151.109 39.74C149.109 39.74 147.509 40.42 146.309 41.78C145.149 43.1 144.569 45.22 144.569 48.14ZM175.007 58.52C176.247 58.52 177.387 58.28 178.427 57.8C179.507 57.32 180.307 56.68 180.827 55.88C181.387 55.04 181.747 54.2 181.907 53.36H190.787C189.947 57.16 188.127 60.16 185.327 62.36C182.527 64.52 179.087 65.6 175.007 65.6C172.687 65.6 170.507 65.18 168.467 64.34C166.427 63.46 164.647 62.24 163.127 60.68C161.607 59.12 160.427 57.28 159.587 55.16C158.747 53 158.327 50.7 158.327 48.26C158.327 45.82 158.747 43.54 159.587 41.42C160.427 39.26 161.607 37.4 163.127 35.84C164.687 34.28 166.507 33.08 168.587 32.24C170.707 31.4 172.947 30.98 175.307 30.98C177.547 30.98 179.627 31.36 181.547 32.12C183.507 32.88 185.207 33.98 186.647 35.42C188.087 36.86 189.207 38.62 190.007 40.7C190.807 42.74 191.207 45 191.207 47.48C191.207 48.56 191.127 49.58 190.967 50.54H166.967C167.127 51.7 167.507 52.92 168.107 54.2C168.707 55.44 169.627 56.48 170.867 57.32C172.107 58.12 173.487 58.52 175.007 58.52ZM175.007 38.06C173.047 38.06 171.347 38.7 169.907 39.98C168.507 41.22 167.567 42.94 167.087 45.14H182.627C182.547 44.1 182.207 43.02 181.607 41.9C181.047 40.78 180.147 39.86 178.907 39.14C177.707 38.42 176.407 38.06 175.007 38.06ZM198.702 65V38.42H195.102V31.58H198.702V30.32C198.702 26.48 199.662 23.6 201.582 21.68C203.542 19.76 206.282 18.8 209.802 18.8C210.922 18.8 211.942 18.92 212.862 19.16C213.822 19.4 214.562 19.72 215.082 20.12V27.08C214.082 26.32 212.862 25.94 211.422 25.94C208.542 25.94 207.102 27.54 207.102 30.74V31.58H215.202V38.42H207.102V65H198.702ZM220.251 65V19.22H228.711V65H220.251ZM237.83 65V31.58H246.23V65H237.83ZM242.03 28.64C240.63 28.64 239.43 28.14 238.43 27.14C237.43 26.1 236.93 24.88 236.93 23.48C236.93 22.08 237.43 20.88 238.43 19.88C239.43 18.84 240.63 18.32 242.03 18.32C243.43 18.32 244.63 18.84 245.63 19.88C246.67 20.88 247.19 22.08 247.19 23.48C247.19 24.88 246.67 26.1 245.63 27.14C244.63 28.14 243.43 28.64 242.03 28.64ZM269.929 58.52C271.169 58.52 272.309 58.28 273.349 57.8C274.429 57.32 275.229 56.68 275.749 55.88C276.309 55.04 276.669 54.2 276.829 53.36H285.709C284.869 57.16 283.049 60.16 280.249 62.36C277.449 64.52 274.009 65.6 269.929 65.6C267.609 65.6 265.429 65.18 263.389 64.34C261.349 63.46 259.569 62.24 258.049 60.68C256.529 59.12 255.349 57.28 254.509 55.16C253.669 53 253.249 50.7 253.249 48.26C253.249 45.82 253.669 43.54 254.509 41.42C255.349 39.26 256.529 37.4 258.049 35.84C259.609 34.28 261.429 33.08 263.509 32.24C265.629 31.4 267.869 30.98 270.229 30.98C272.469 30.98 274.549 31.36 276.469 32.12C278.429 32.88 280.129 33.98 281.569 35.42C283.009 36.86 284.129 38.62 284.929 40.7C285.729 42.74 286.129 45 286.129 47.48C286.129 48.56 286.049 49.58 285.889 50.54H261.889C262.049 51.7 262.429 52.92 263.029 54.2C263.629 55.44 264.549 56.48 265.789 57.32C267.029 58.12 268.409 58.52 269.929 58.52ZM269.929 38.06C267.969 38.06 266.269 38.7 264.829 39.98C263.429 41.22 262.489 42.94 262.009 45.14H277.549C277.469 44.1 277.129 43.02 276.529 41.9C275.969 40.78 275.069 39.86 273.829 39.14C272.629 38.42 271.329 38.06 269.929 38.06ZM299.863 40.64C299.863 41.4 300.203 42.12 300.883 42.8C301.563 43.44 303.603 44.16 307.003 44.96C310.403 45.72 312.683 46.42 313.843 47.06C315.043 47.7 316.003 48.4 316.723 49.16C317.443 49.88 317.983 50.78 318.343 51.86C318.703 52.9 318.883 53.98 318.883 55.1C318.883 58.22 317.663 60.76 315.223 62.72C312.823 64.64 309.603 65.6 305.563 65.6C303.643 65.6 301.803 65.34 300.043 64.82C298.323 64.3 296.783 63.52 295.423 62.48C294.103 61.44 293.043 60.16 292.243 58.64C291.443 57.08 290.963 55.34 290.803 53.42H299.323C299.403 54.26 299.663 55.12 300.103 56C300.543 56.88 301.263 57.6 302.263 58.16C303.263 58.68 304.423 58.94 305.743 58.94C307.183 58.94 308.323 58.66 309.163 58.1C310.043 57.5 310.483 56.72 310.483 55.76C310.483 54.8 310.043 53.98 309.163 53.3C308.323 52.62 306.283 51.9 303.043 51.14C299.843 50.38 297.583 49.64 296.263 48.92C294.943 48.2 293.963 47.46 293.323 46.7C292.683 45.9 292.203 45.04 291.883 44.12C291.603 43.2 291.463 42.18 291.463 41.06C291.463 39.02 292.043 37.24 293.203 35.72C294.363 34.16 295.863 32.98 297.703 32.18C299.583 31.38 301.743 30.98 304.183 30.98C308.103 30.98 311.283 32.04 313.723 34.16C316.203 36.24 317.643 39.22 318.043 43.1H309.823C309.583 41.46 308.943 40.14 307.903 39.14C306.903 38.14 305.663 37.64 304.183 37.64C302.823 37.64 301.763 37.92 301.003 38.48C300.243 39.04 299.863 39.76 299.863 40.64ZM328.54 65.6C327.22 65.6 326.08 65.12 325.12 64.16C324.2 63.2 323.74 62.06 323.74 60.74C323.74 59.42 324.2 58.28 325.12 57.32C326.08 56.36 327.22 55.88 328.54 55.88C329.9 55.88 331.04 56.36 331.96 57.32C332.92 58.28 333.4 59.42 333.4 60.74C333.4 62.06 332.92 63.2 331.96 64.16C331.04 65.12 329.9 65.6 328.54 65.6ZM345.973 48.32C345.973 51.28 346.733 53.7 348.253 55.58C349.813 57.46 351.893 58.4 354.493 58.4C355.773 58.4 357.073 58.08 358.393 57.44C359.753 56.8 360.873 55.66 361.753 54.02C362.633 52.34 363.073 50.44 363.073 48.32C363.073 45.4 362.293 42.98 360.733 41.06C359.173 39.14 357.073 38.18 354.433 38.18C351.833 38.18 349.773 39.12 348.253 41C346.733 42.88 345.973 45.32 345.973 48.32ZM362.953 36.38V31.58H371.353V65H362.953V60.02C361.833 61.78 360.393 63.16 358.633 64.16C356.873 65.12 354.913 65.6 352.753 65.6C351.113 65.6 349.413 65.32 347.653 64.76C345.893 64.2 344.153 63.14 342.433 61.58C340.713 60.02 339.413 58.04 338.533 55.64C337.693 53.24 337.273 50.8 337.273 48.32C337.273 45.84 337.633 43.54 338.353 41.42C339.113 39.26 340.193 37.4 341.593 35.84C342.993 34.28 344.653 33.08 346.573 32.24C348.493 31.4 350.573 30.98 352.813 30.98C355.013 30.98 356.973 31.46 358.693 32.42C360.453 33.34 361.873 34.66 362.953 36.38ZM380.447 65V31.58H388.847V65H380.447ZM384.647 28.64C383.247 28.64 382.047 28.14 381.047 27.14C380.047 26.1 379.547 24.88 379.547 23.48C379.547 22.08 380.047 20.88 381.047 19.88C382.047 18.84 383.247 18.32 384.647 18.32C386.047 18.32 387.247 18.84 388.247 19.88C389.287 20.88 389.807 22.08 389.807 23.48C389.807 24.88 389.287 26.1 388.247 27.14C387.247 28.14 386.047 28.64 384.647 28.64Z" fill="#5C5551"/>
<rect width="25.2632" height="25.2632" fill="#333333" fill-opacity="0.8"/>
<rect x="29.4736" y="30.3158" width="25.2632" height="25.2632" fill="#333333" fill-opacity="0.8"/>
<mask id="mask0" mask-type="alpha" maskUnits="userSpaceOnUse" x="0" y="30" width="26" height="50">
<rect y="30.3158" width="25.2632" height="49.6842" fill="#C4C4C4"/>
</mask>
<g mask="url(#mask0)">
<circle cx="24.8421" cy="55.1579" r="24.8421" fill="#333333" fill-opacity="0.8"/>
</g>
<mask id="mask1" mask-type="alpha" maskUnits="userSpaceOnUse" x="29" y="0" width="51" height="26">
<rect x="29.4736" width="49.6842" height="25.2632" fill="#C4C4C4"/>
</mask>
<g mask="url(#mask1)">
<circle cx="54.3157" cy="24.8421" r="24.8421" fill="#333333" fill-opacity="0.8"/>
</g>
<rect x="29.4736" width="25.2632" height="25.2632" fill="#5C5551"/>
<rect y="30.3158" width="25.2632" height="25.2632" fill="#5C5551"/>
</svg>
