<svg width="419" height="80" viewBox="0 0 419 80" fill="none" xmlns="http://www.w3.org/2000/svg">
<path d="M79.2079 0H0V79.2079H79.2079V0Z" fill="#5C5551"/>
<path d="M36.9344 44.7852L23.3389 19.3167H29.5522L37.5496 35.4345C37.6726 35.7216 37.8161 36.0189 37.9802 36.3265C38.1442 36.6341 38.2878 36.9519 38.4108 37.28C38.4928 37.403 38.5544 37.5158 38.5954 37.6184C38.6364 37.7209 38.6774 37.8132 38.7184 37.8952C38.9235 38.3053 39.108 38.7052 39.2721 39.0948C39.4361 39.4844 39.5797 39.8433 39.7027 40.1714C40.0308 39.4742 40.3896 38.7257 40.7793 37.926C41.1689 37.1262 41.5687 36.2957 41.9789 35.4345L50.0993 19.3167H55.882L42.1634 45.0928V61.5182H36.9344V44.7852Z" fill="white"/>
<path d="M104.328 35V19.6875H108.996V13.8086H104.328V12.7734C104.328 11.7969 105.012 11.1523 105.988 11.1523H108.996V5.27344C107.57 5.11719 106.34 5.01953 105.129 5.01953C99.9141 5.01953 97.2969 7.71484 97.2969 12.2852V13.8086H94.3281V19.6875H97.2969V35H104.328ZM120.305 35.625C122.395 35.625 124.465 34.7461 125.578 33.5742H125.852V35H132.258V13.8086H125.246V25.6445C125.246 27.5586 123.859 29.3164 121.984 29.3164C120.324 29.3164 119.27 28.0273 119.27 26.582V13.8086H112.258V26.3477C112.258 31.9727 115.207 35.625 120.305 35.625ZM146.496 35.2539C147.785 35.2539 149.016 35.1562 150.363 35V29.1211H147.355C146.379 29.1211 145.676 28.4766 145.676 27.5V19.6875H150.363V13.8086H145.676V7.53906L138.859 9.39453V13.8086H135.695V19.6875H138.664V27.9883C138.664 32.7734 141.574 35.2539 146.496 35.2539ZM162.648 35.625C164.738 35.625 166.809 34.7461 167.922 33.5742H168.195V35H174.602V13.8086H167.59V25.6445C167.59 27.5586 166.203 29.3164 164.328 29.3164C162.668 29.3164 161.613 28.0273 161.613 26.582V13.8086H154.602V26.3477C154.602 31.9727 157.551 35.625 162.648 35.625ZM186.672 35V24.3359C186.672 22.0117 188.273 20.2148 190.48 20.2148H193.293V13.4375C192.766 13.3398 192.199 13.3008 191.613 13.3008C189.504 13.3008 187.434 14.1797 186.32 15.3516H186.066V13.8086H179.641V35H186.672ZM206.691 35.625C210.871 35.625 215.051 33.5547 216.75 30.0781L211.047 27.6562C210.266 28.9258 208.996 29.8047 206.809 29.8047C204.68 29.8047 202.746 28.418 202.57 26.4453L217.102 26.4648C217.199 26.0742 217.258 24.8047 217.258 24.375C217.258 17.0117 212.336 13.1836 206.574 13.1836C200.383 13.1836 195.285 17.4609 195.285 24.3945C195.285 31.3477 200.5 35.625 206.691 35.625ZM202.551 22.1484C202.863 20.0781 204.66 18.7891 206.555 18.7891C208.43 18.7891 209.914 20.0781 210.188 22.1484H202.551ZM237.258 35V19.6875H241.926V13.8086H237.258V12.7734C237.258 11.7969 237.941 11.1523 238.918 11.1523H241.926V5.27344C240.5 5.11719 239.27 5.01953 238.059 5.01953C232.844 5.01953 230.227 7.71484 230.227 12.2852V13.8086H227.258V19.6875H230.227V35H237.258ZM255.578 35.625C262.199 35.625 267.082 31.0352 267.082 24.4141C267.082 17.7734 262.199 13.1836 255.578 13.1836C248.938 13.1836 244.074 17.7734 244.074 24.4141C244.074 31.0352 248.938 35.625 255.578 35.625ZM255.578 29.043C253.059 29.043 251.086 27.1289 251.086 24.4141C251.086 21.6797 253.059 19.7461 255.578 19.7461C258.098 19.7461 260.07 21.6797 260.07 24.4141C260.07 27.1289 258.098 29.043 255.578 29.043ZM278.625 35.625C280.715 35.625 282.785 34.7461 283.898 33.5742H284.172V35H290.578V13.8086H283.566V25.6445C283.566 27.5586 282.18 29.3164 280.305 29.3164C278.645 29.3164 277.59 28.0273 277.59 26.582V13.8086H270.578V26.3477C270.578 31.9727 273.527 35.625 278.625 35.625ZM302.648 35V23.1641C302.648 21.25 304.035 19.4922 305.91 19.4922C307.57 19.4922 308.625 20.7812 308.625 22.2266V35H315.637V22.4609C315.637 16.8359 312.688 13.1836 307.59 13.1836C305.5 13.1836 303.43 14.0625 302.316 15.2344H302.043V13.8086H295.637V35H302.648ZM329.797 35.625C332.121 35.625 333.938 34.8828 335.207 33.5742H335.461V35H341.887V5.27344H334.855V15C333.586 13.8477 331.867 13.1836 329.797 13.1836C323.82 13.1836 319.152 17.8516 319.152 24.4141C319.152 30.9766 323.82 35.625 329.797 35.625ZM330.637 29.1797C328.117 29.1797 326.184 27.4609 326.184 24.4141C326.184 21.3672 328.117 19.6484 330.637 19.6484C333.156 19.6484 335.109 21.3672 335.109 24.4141C335.109 27.4609 333.156 29.1797 330.637 29.1797ZM357.043 35.625C361.223 35.625 365.402 33.5547 367.102 30.0781L361.398 27.6562C360.617 28.9258 359.348 29.8047 357.16 29.8047C355.031 29.8047 353.098 28.418 352.922 26.4453L367.453 26.4648C367.551 26.0742 367.609 24.8047 367.609 24.375C367.609 17.0117 362.688 13.1836 356.926 13.1836C350.734 13.1836 345.637 17.4609 345.637 24.3945C345.637 31.3477 350.852 35.625 357.043 35.625ZM352.902 22.1484C353.215 20.0781 355.012 18.7891 356.906 18.7891C358.781 18.7891 360.266 20.0781 360.539 22.1484H352.902ZM378.312 35V24.3359C378.312 22.0117 379.914 20.2148 382.121 20.2148H384.934V13.4375C384.406 13.3398 383.84 13.3008 383.254 13.3008C381.145 13.3008 379.074 14.1797 377.961 15.3516H377.707V13.8086H371.281V35H378.312ZM395.402 35.5859C401.027 35.5859 404.191 33.0078 404.191 28.5938C404.191 25.1562 402.414 23.2031 398.996 21.8945L395.617 20.5664C394.641 20.1562 394.348 19.9023 394.348 19.3555C394.348 18.8281 394.914 18.4961 395.871 18.4961C396.73 18.4961 397.609 18.9844 397.707 19.9414L403.996 19.4141C403.625 15.8398 401.086 13.2227 395.871 13.2227C390.637 13.2227 387.316 15.8594 387.316 19.8828C387.316 22.9492 388.625 24.9414 391.867 26.1914L395.285 27.5195C396.691 28.0859 397.16 28.3594 397.16 29.1211C397.16 29.7656 396.477 30.1367 395.383 30.1367C394.348 30.1367 393.215 29.4141 393.059 28.3984L386.77 28.9258C387.414 33.0859 390.168 35.5859 395.402 35.5859ZM105.676 76.625C110.91 76.625 115.285 73.5781 116.594 68.9883L109.875 66.8984C109.25 68.9883 107.59 70.0625 105.676 70.0625C103.293 70.0625 101.223 68.2656 101.223 65.4141C101.223 62.543 103.293 60.7461 105.676 60.7461C107.59 60.7461 109.25 61.8203 109.875 63.9102L116.594 61.8203C115.285 57.2305 110.91 54.1836 105.676 54.1836C99.0352 54.1836 94.1914 58.832 94.1914 65.4141C94.1914 71.9766 99.0352 76.625 105.676 76.625ZM129.523 76.625C136.145 76.625 141.027 72.0352 141.027 65.4141C141.027 58.7734 136.145 54.1836 129.523 54.1836C122.883 54.1836 118.02 58.7734 118.02 65.4141C118.02 72.0352 122.883 76.625 129.523 76.625ZM129.523 70.043C127.004 70.043 125.031 68.1289 125.031 65.4141C125.031 62.6797 127.004 60.7461 129.523 60.7461C132.043 60.7461 134.016 62.6797 134.016 65.4141C134.016 68.1289 132.043 70.043 129.523 70.043ZM151.75 76V64.1641C151.75 62.25 153.137 60.4922 155.012 60.4922C156.672 60.4922 157.727 61.7812 157.727 63.2266V76H164.738V63.4609C164.738 57.8359 161.789 54.1836 156.691 54.1836C154.602 54.1836 152.531 55.0625 151.418 56.2344H151.145V54.8086H144.738V76H151.75ZM178.391 76V60.6875H183.059V54.8086H178.391V53.7734C178.391 52.7969 179.074 52.1523 180.051 52.1523H183.059V46.2734C181.633 46.1172 180.402 46.0195 179.191 46.0195C173.977 46.0195 171.359 48.7148 171.359 53.2852V54.8086H168.391V60.6875H171.359V76H178.391ZM196.613 76.625C200.793 76.625 204.973 74.5547 206.672 71.0781L200.969 68.6562C200.188 69.9258 198.918 70.8047 196.73 70.8047C194.602 70.8047 192.668 69.418 192.492 67.4453L207.023 67.4648C207.121 67.0742 207.18 65.8047 207.18 65.375C207.18 58.0117 202.258 54.1836 196.496 54.1836C190.305 54.1836 185.207 58.4609 185.207 65.3945C185.207 72.3477 190.422 76.625 196.613 76.625ZM192.473 63.1484C192.785 61.0781 194.582 59.7891 196.477 59.7891C198.352 59.7891 199.836 61.0781 200.109 63.1484H192.473ZM217.883 76V65.3359C217.883 63.0117 219.484 61.2148 221.691 61.2148H224.504V54.4375C223.977 54.3398 223.41 54.3008 222.824 54.3008C220.715 54.3008 218.645 55.1797 217.531 56.3516H217.277V54.8086H210.852V76H217.883ZM237.902 76.625C242.082 76.625 246.262 74.5547 247.961 71.0781L242.258 68.6562C241.477 69.9258 240.207 70.8047 238.02 70.8047C235.891 70.8047 233.957 69.418 233.781 67.4453L248.312 67.4648C248.41 67.0742 248.469 65.8047 248.469 65.375C248.469 58.0117 243.547 54.1836 237.785 54.1836C231.594 54.1836 226.496 58.4609 226.496 65.3945C226.496 72.3477 231.711 76.625 237.902 76.625ZM233.762 63.1484C234.074 61.0781 235.871 59.7891 237.766 59.7891C239.641 59.7891 241.125 61.0781 241.398 63.1484H233.762ZM259.172 76V64.1641C259.172 62.25 260.559 60.4922 262.434 60.4922C264.094 60.4922 265.148 61.7812 265.148 63.2266V76H272.16V63.4609C272.16 57.8359 269.211 54.1836 264.113 54.1836C262.023 54.1836 259.953 55.0625 258.84 56.2344H258.566V54.8086H252.16V76H259.172ZM287.16 76.625C292.395 76.625 296.77 73.5781 298.078 68.9883L291.359 66.8984C290.734 68.9883 289.074 70.0625 287.16 70.0625C284.777 70.0625 282.707 68.2656 282.707 65.4141C282.707 62.543 284.777 60.7461 287.16 60.7461C289.074 60.7461 290.734 61.8203 291.359 63.9102L298.078 61.8203C296.77 57.2305 292.395 54.1836 287.16 54.1836C280.52 54.1836 275.676 58.832 275.676 65.4141C275.676 71.9766 280.52 76.625 287.16 76.625ZM310.91 76.625C315.09 76.625 319.27 74.5547 320.969 71.0781L315.266 68.6562C314.484 69.9258 313.215 70.8047 311.027 70.8047C308.898 70.8047 306.965 69.418 306.789 67.4453L321.32 67.4648C321.418 67.0742 321.477 65.8047 321.477 65.375C321.477 58.0117 316.555 54.1836 310.793 54.1836C304.602 54.1836 299.504 58.4609 299.504 65.3945C299.504 72.3477 304.719 76.625 310.91 76.625ZM306.77 63.1484C307.082 61.0781 308.879 59.7891 310.773 59.7891C312.648 59.7891 314.133 61.0781 314.406 63.1484H306.77Z" fill="#5C5551"/>
</svg>
