<svg width="455" height="280" viewBox="0 0 455 280" fill="none" xmlns="http://www.w3.org/2000/svg">
<mask id="mask0" mask-type="alpha" maskUnits="userSpaceOnUse" x="0" y="0" width="455" height="280">
<rect width="455" height="280" fill="#C4C4C4"/>
</mask>
<g mask="url(#mask0)">
<path d="M285.546 -1.47502C293.278 2.27093 388.88 12.1538 390.808 27.6136C392.735 43.0735 379.611 57.2699 373.157 72.5187C366.703 87.7675 362.521 100.849 362.521 100.849C362.521 100.849 391.859 133.104 398 127C404.141 120.896 420.771 104.813 427 96.5C433.229 88.1874 450 76.4067 450 91.1871C450 105.968 416.069 182.728 405.5 187C394.931 191.272 328.606 128.942 317.521 118.706C306.437 108.47 311.802 107.8 314.09 91.1871C316.378 74.5738 333.888 46.0145 333.888 46.0145C333.888 46.0145 245.016 31.8384 241.52 21.2841C238.025 10.7298 277.813 -5.22098 285.546 -1.47502Z" fill="#F1F3F7"/>
<ellipse cx="345.889" cy="87.1266" rx="7.20974" ry="6.55828" fill="white"/>
<ellipse cx="450.173" cy="135.919" rx="7.20974" ry="6.55828" fill="white"/>
<ellipse cx="382.024" cy="147.809" rx="10.8146" ry="9.83742" fill="white"/>
<ellipse cx="396.819" cy="168.039" rx="3.60487" ry="3.27914" fill="white"/>
<path d="M288.893 225.797C278.333 211.254 272.151 204.551 243.298 164.604C234.397 142.755 249.073 140.321 262.412 123.648C269.887 114.307 268.592 103.688 237.02 91.8691C222.756 81.0798 223.626 83.2313 231.279 51.865C238.933 20.4988 227.513 11.3504 243.298 22.7145C251.792 54.1267 268.592 22.1985 268.592 67.202C288.893 78.8034 304.986 92.2136 304.986 107.863C304.986 123.511 298.765 139.676 284.895 152.35C284.895 152.35 362.9 267.597 351.116 278.131C339.333 288.665 299.454 240.34 288.893 225.797Z" fill="#F1F3F7"/>
<path d="M193.261 23.8223C193.261 23.8223 145.367 69.9845 145.367 90.0751C145.367 110.166 178.893 157.363 178.893 171.166C178.893 184.969 135.995 173.581 122.657 183.933C109.319 194.285 38.6634 271.235 59.2111 278.827C79.7589 286.418 130.096 223.377 156.182 216.101C176.202 210.518 199.08 216.101 230.082 216.101C261.084 216.101 193.261 96.9765 193.261 96.9765C193.261 96.9765 250.578 31.7588 241.927 23.8223C233.275 15.8857 193.261 23.8223 193.261 23.8223Z" fill="#F1F3F7"/>
<ellipse cx="205.441" cy="167.834" rx="7.20974" ry="6.90134" fill="white"/>
<ellipse cx="130.461" cy="202.341" rx="10.8146" ry="10.352" fill="white"/>
<ellipse cx="196.79" cy="203.721" rx="3.60487" ry="3.45067" fill="white"/>
<path d="M115.32 239.608C115.32 241.514 113.706 243.059 111.715 243.059C109.724 243.059 108.11 241.514 108.11 239.608C108.11 237.702 109.724 236.157 111.715 236.157C113.706 236.157 115.32 237.702 115.32 239.608Z" fill="white"/>
<path d="M85.6045 25.8987C93.4993 0.409141 169.634 0.0187683 191.624 -3.77697C213.613 -7.57272 230.881 2.43419 233.765 18.9974C236.648 35.5606 125.084 39.4293 125.084 39.4293C120.301 55.6936 113.125 98.7459 103.558 115.01C93.9908 131.274 85.6045 126.969 51.4163 115.01C32.6771 120.751 11.7124 137.971 3.10242 131.753C-5.50759 125.534 12.7468 87.7817 40.8928 67.6526C51.4163 73.8712 61.6294 91.2146 71.508 82.1447C85.6045 77.2198 77.7098 51.3883 85.6045 25.8987Z" fill="#F1F3F7"/>
<mask id="path-14-inside-1" fill="white">
<path fill-rule="evenodd" clip-rule="evenodd" d="M291.243 -2.66627L160.729 -2.66627C168.174 41.6574 194.568 74.4249 225.986 74.4249C257.404 74.4249 283.798 41.6574 291.243 -2.66627Z"/>
</mask>
<path fill-rule="evenodd" clip-rule="evenodd" d="M291.243 -2.66627L160.729 -2.66627C168.174 41.6574 194.568 74.4249 225.986 74.4249C257.404 74.4249 283.798 41.6574 291.243 -2.66627Z" fill="#F1F3F7"/>
<path d="M291.243 -2.66627L293.215 -2.33498L293.607 -4.66627H291.243V-2.66627ZM160.729 -2.66627V-4.66627H158.365L158.756 -2.33498L160.729 -2.66627ZM291.243 -4.66627L160.729 -4.66627V-0.666267L291.243 -0.666267V-4.66627ZM225.986 72.4249C211.023 72.4249 197.089 64.6282 185.903 51.2194C174.714 37.8076 166.376 18.882 162.701 -2.99755L158.756 -2.33498C162.526 20.1091 171.108 39.7291 182.832 53.7819C194.558 67.8378 209.531 76.4249 225.986 76.4249V72.4249ZM289.27 -2.99755C285.595 18.882 277.258 37.8076 266.069 51.2194C254.882 64.6282 240.949 72.4249 225.986 72.4249V76.4249C242.441 76.4249 257.414 67.8378 269.14 53.7819C280.864 39.7291 289.445 20.1091 293.215 -2.33498L289.27 -2.99755Z" fill="#F1F3F7" mask="url(#path-14-inside-1)"/>
</g>
</svg>
