<svg width="455" height="240" viewBox="0 0 455 240" fill="none" xmlns="http://www.w3.org/2000/svg">
<mask id="mask0" mask-type="alpha" maskUnits="userSpaceOnUse" x="0" y="0" width="455" height="240">
<rect width="455" height="240" fill="#C4C4C4"/>
</mask>
<g mask="url(#mask0)">
<rect x="32.1997" y="-5.3" width="387.8" height="278.6" rx="20" fill="white"/>
<rect x="51.6626" y="13.5496" width="349.203" height="226.654" fill="#F1F3F7"/>
</g>
<ellipse cx="226.155" cy="110.038" rx="58.8253" ry="56.9027" fill="#FFDEC7"/>
<path d="M289.098 31.7972C277.556 50.2406 270.123 56.8586 254.685 60.2485L276.156 79.8799C292.072 69.5728 292.234 56.9618 289.098 31.7972Z" fill="#FFDEC7"/>
<path d="M166.283 32.2007C176.32 51.4501 183.204 58.6027 198.325 63.134L175.353 81.1056C160.307 69.6421 161.15 57.0566 166.283 32.2007Z" fill="#FFDEC7"/>
<path d="M289.098 31.7972C277.556 50.2406 270.123 56.8586 254.685 60.2485L276.156 79.8799C292.072 69.5728 292.234 56.9618 289.098 31.7972Z" fill="#FFDEC7"/>
<path d="M313.804 77.3193C300.673 90.5661 293.655 94.5029 282.039 92.3985V115.16C305.435 111.292 310.222 100.855 313.804 77.3193Z" fill="#FFDEC7"/>
<path d="M139.683 77.4363C152.992 90.516 160.063 94.3637 171.649 92.1127L171.957 114.872C148.511 111.3 143.582 100.925 139.683 77.4363Z" fill="#FFDEC7"/>
<path d="M199.095 95.4386C221.659 63.9146 232.857 70.4888 252.038 95.4386C231.362 114.169 219.77 115.627 199.095 95.4386Z" fill="white"/>
<ellipse cx="233.214" cy="98.6578" rx="10.0003" ry="9.67345" fill="#FFDEC7"/>
<path fill-rule="evenodd" clip-rule="evenodd" d="M160.892 240H291.34C283.851 193.401 257.488 158.975 226.116 158.975C194.743 158.975 168.381 193.401 160.892 240Z" fill="#FFDEC7"/>
</svg>
