<svg width="250" height="269" viewBox="0 0 250 269" fill="none" xmlns="http://www.w3.org/2000/svg">
<path fill-rule="evenodd" clip-rule="evenodd" d="M44.8711 278.189H206.411C197.196 144.729 164.528 46.0645 125.641 46.0645C86.754 46.0645 54.0856 144.729 44.8711 278.189Z" fill="white"/>
<ellipse cx="125.961" cy="81.95" rx="52.244" ry="58.516" fill="white"/>
<path d="M170.191 93.5884C202.847 57.128 219.74 134.359 249.715 271.39L250 272.693H224.359L195.833 189.93L170.191 93.5884Z" fill="white"/>
<path d="M79.9128 97.7463C47.278 61.2863 30.3397 138.516 0.286044 275.546L0.000281083 276.849H25.6418L54.2157 194.087L79.9128 97.7463Z" fill="white"/>
<path d="M59.6152 22.4642L98.0771 32.8095L78.8462 56.0866L59.6152 22.4642Z" fill="white"/>
<path d="M188.195 19.0601L173.21 56.257L152.719 34.1008L188.195 19.0601Z" fill="white"/>
<path d="M115.988 17.1572C115.672 19.6221 115.723 23.448 115.857 26.131C115.869 26.3728 115.889 26.6009 115.918 26.8121L122.579 28.3494C122.579 28.3494 130.314 -5.75145 120.303 7.48105C116.362 12.6908 116.379 14.0959 115.988 17.1572Z" fill="white"/>
<path d="M103.812 4.37442L109.049 25.2268L115.918 26.8121C115.889 26.6009 115.869 26.3728 115.857 26.131C115.736 24.6177 115.519 20.8191 115.988 17.1572C108.904 5.25339 103.812 4.37442 103.812 4.37442Z" fill="white"/>
<path d="M137.379 12.0191C135.038 10.4798 122.579 28.3494 122.579 28.3494L130.904 30.271C130.904 30.271 139.721 13.5584 137.379 12.0191Z" fill="white"/>
<path d="M105.986 100.25L105.829 80.1062L117.226 87.6166L105.986 100.25Z" fill="#FFDEC7"/>
<path d="M147.367 100.646L145.119 80.6299L134.701 89.4699L147.367 100.646Z" fill="#FFDEC7"/>
<path d="M96.1445 75.1609C122.625 94.5089 135.513 92.1658 156.401 73.8694" stroke="#FFDEC7" stroke-width="5" stroke-linecap="round" stroke-linejoin="round"/>
</svg>
