<svg width="310" height="464" viewBox="0 0 310 464" fill="none" xmlns="http://www.w3.org/2000/svg">
<path d="M57.5 147L0 62L74.5 93.5V0L117 49L159.5 0V49L242.5 34L200 93.5H272.5L200 134L57.5 147Z" fill="#FFDEC7"/>
<path d="M108.566 445.934C108.566 445.934 131.044 306.696 128.903 278.774C126.762 250.851 60.7323 243.039 41.4314 214.23C22.1306 185.42 57.394 112.272 74.1213 82.0607C90.8487 51.8499 186.618 71.4116 201.722 103.632C216.826 135.852 162.565 188.7 185.786 200.565C209.008 212.429 288.705 194.84 292.671 263.271C296.638 331.702 245.731 446.51 245.731 446.51L108.566 445.934Z" fill="#FFDEC7"/>
<path fill-rule="evenodd" clip-rule="evenodd" d="M89.365 155.164L165.291 150.417C161.733 163.045 146.95 173.14 128.672 174.283C110.395 175.426 94.4686 167.251 89.365 155.164Z" fill="white"/>
<path fill-rule="evenodd" clip-rule="evenodd" d="M94.6741 148.958L158.266 145.152C153.911 133.208 140.512 124.987 125.204 125.903C109.896 126.82 97.5735 136.58 94.6741 148.958Z" fill="white"/>
<path d="M53.5001 219C28.6986 253.695 26.081 270.144 34.5001 296C73.9927 305.159 92.9113 310.979 126 321.5" stroke="#FFDEC7" stroke-width="15" stroke-linecap="round"/>
<ellipse cx="117" cy="340" rx="19" ry="11" transform="rotate(-25.5283 117 340)" fill="#FFDEC7"/>
</svg>
