<svg width="350" height="256" viewBox="0 0 350 256" fill="none" xmlns="http://www.w3.org/2000/svg">
<path d="M348.579 56.3667C326.16 82.9009 312.34 90.3653 282.354 95.2423C295.257 108.254 300.825 111.266 308.66 111.25C341.156 111.25 354.67 92.5706 348.579 56.3667Z" fill="white"/>
<path d="M301.927 45.2417C298.986 68.978 300.567 79.0814 311.831 88.7214L288.999 107.423C274.444 81.3465 281.141 68.0855 301.927 45.2417Z" fill="white"/>
<path d="M35.9185 89.3107C40.5636 95.9865 47.9181 105.771 53.1021 112.526C53.5693 113.135 54.0121 113.7 54.4253 114.212L59.1607 111.032C59.1607 111.032 -4.19655 15.0588 18.5094 59.8072C27.449 77.4251 30.1495 81.0195 35.9185 89.3107Z" fill="white"/>
<path d="M8.12741 69.4802L49.5419 117.492L54.4253 114.212C54.0121 113.7 53.5693 113.135 53.1021 112.526C50.1661 108.764 42.8194 99.2286 35.9185 89.3107C11.1789 66.2878 8.12741 69.4802 8.12741 69.4802Z" fill="white"/>
<path d="M31.7949 53.1883C28.2135 51.7378 59.1607 111.032 59.1607 111.032L65.0799 107.056C65.0799 107.056 35.3762 54.6387 31.7949 53.1883Z" fill="white"/>
<path d="M121.752 274.416C121.752 274.416 100.803 153.271 105.965 101.276C111.126 49.2816 170.806 63.2701 189.455 63.2701C208.104 63.2701 249.264 83.329 249.264 112.625C249.264 141.922 229.226 274.416 229.226 274.416H121.752Z" fill="white"/>
<rect width="14.7164" height="42.2451" transform="matrix(0.957165 -0.289544 0.284996 0.958529 127.941 27.2524)" fill="white"/>
<rect width="14.7091" height="42.2657" transform="matrix(0.986977 0.160861 -0.158178 0.987411 201.059 23.3188)" fill="white"/>
<ellipse cx="130.882" cy="14.8333" rx="14.7059" ry="14.8333" fill="white"/>
<ellipse cx="209.557" cy="20.0247" rx="14.7059" ry="14.8333" fill="white"/>
<path d="M237.5 161.683C264.535 147.582 276.736 134.112 290.441 94.9331L306.25 108.283C297.58 149.544 282.521 169.521 237.5 199.508V161.683Z" fill="white"/>
<path d="M127.777 153.118C98.212 145.83 83.2108 135.633 60.7505 100.808L48.5 117.535C66.5525 155.579 85.8484 171.422 136.601 189.881L127.777 153.118Z" fill="white"/>
<path fill-rule="evenodd" clip-rule="evenodd" d="M200.755 95.4676L147.794 101.456C153.339 123.833 165.916 139.418 178.666 137.977C191.415 136.535 200.259 118.529 200.755 95.4676Z" fill="#FFDEC7"/>
</svg>
