<svg width="300" height="337" viewBox="0 0 300 337" fill="none" xmlns="http://www.w3.org/2000/svg">
<path fill-rule="evenodd" clip-rule="evenodd" d="M51.938 336.411H247.287C236.144 175.019 196.638 55.7053 149.612 55.7053C102.587 55.7053 63.081 175.019 51.938 336.411Z" fill="#FFDEC7"/>
<ellipse cx="150" cy="99.1014" rx="63.1783" ry="70.7629" fill="#FFDEC7"/>
<path d="M203.488 113.176C242.978 69.0844 263.408 162.479 299.655 328.189L300 329.765H268.992L234.496 229.68L203.488 113.176Z" fill="#FFDEC7"/>
<path d="M96.8188 116.632C55.8883 73.8978 38.5685 167.93 7.83783 334.77L7.54563 336.357L38.536 335.31L69.6929 234.118L96.8188 116.632Z" fill="#FFDEC7"/>
<path d="M69.7671 27.1655L116.279 39.6761L93.0229 67.8249L69.7671 27.1655Z" fill="#FFDEC7"/>
<path d="M225.26 23.0492L207.138 68.0311L182.358 41.2379L225.26 23.0492Z" fill="#FFDEC7"/>
<path d="M137.939 20.748C137.558 23.7288 137.619 28.3554 137.781 31.6C137.795 31.8924 137.819 32.1681 137.855 32.4236L145.909 34.2826C145.909 34.2826 155.264 -6.95524 143.158 9.04671C138.391 15.3468 138.412 17.0459 137.939 20.748Z" fill="#FFDEC7"/>
<path d="M123.216 5.28989L129.548 30.5065L137.855 32.4236C137.819 32.1681 137.795 31.8924 137.781 31.6C137.635 29.7699 137.373 25.1763 137.939 20.748C129.372 6.35282 123.216 5.28989 123.216 5.28989Z" fill="#FFDEC7"/>
<path d="M163.808 14.5346C160.976 12.6731 145.909 34.2826 145.909 34.2826L155.978 36.6064C155.978 36.6064 166.639 16.3961 163.808 14.5346Z" fill="#FFDEC7"/>
<path d="M125.84 121.232L125.649 96.8718L139.432 105.954L125.84 121.232Z" fill="white"/>
<path d="M175.882 121.711L173.163 97.5051L160.564 108.195L175.882 121.711Z" fill="white"/>
<path d="M113.938 90.8915C145.96 114.289 161.546 111.455 186.806 89.3298" stroke="white" stroke-width="5" stroke-linecap="round" stroke-linejoin="round"/>
</svg>
