<svg width="225" height="289" viewBox="0 0 225 289" fill="none" xmlns="http://www.w3.org/2000/svg">
<path d="M41.8011 107.791L0 45.4631L54.1597 68.5612V0L85.0561 35.9305L115.953 0V35.9305L176.292 24.9314L145.395 68.5612H198.101L145.395 98.2589L41.8011 107.791Z" fill="white"/>
<path d="M78.9248 326.992C78.9248 326.992 95.266 224.892 93.7096 204.418C92.1531 183.943 44.1509 178.214 30.1196 157.089C16.0884 135.964 41.724 82.3257 53.8844 60.1729C66.0448 38.02 135.667 52.3642 146.647 75.9903C157.627 99.6165 118.181 138.369 135.062 147.069C151.943 155.769 209.881 142.871 212.765 193.05C215.648 243.229 178.64 327.415 178.64 327.415L78.9248 326.992Z" fill="white"/>
<path fill-rule="evenodd" clip-rule="evenodd" d="M64.9668 113.778L120.164 110.297C117.577 119.557 106.83 126.959 93.5422 127.797C80.2548 128.636 68.677 122.641 64.9668 113.778Z" fill="#FFDEC7"/>
<path fill-rule="evenodd" clip-rule="evenodd" d="M68.8274 109.227L115.057 106.436C111.891 97.6779 102.151 91.65 91.0219 92.3219C79.8931 92.9939 70.9353 100.151 68.8274 109.227Z" fill="#FFDEC7"/>
<path d="M38.8912 160.587C20.8611 186.029 18.9582 198.09 25.0787 217.05C53.7888 223.766 67.5422 228.033 91.5969 235.748" stroke="white" stroke-width="15" stroke-linecap="round"/>
<ellipse rx="13.8348" ry="8.0532" transform="matrix(0.900918 -0.43399 0.427934 0.90381 85.0568 249.314)" fill="white"/>
</svg>
