<svg width="399" height="212" viewBox="0 0 399 212" fill="none" xmlns="http://www.w3.org/2000/svg">
<path d="M318.606 162.5C310.628 80.4407 297.933 42.8339 220.636 31.5902C154.954 34.752 123.917 78.5621 69.3579 162.5L318.606 162.5Z" fill="#F1F3F7"/>
<path d="M69.5 162.5C66 169 49.5 167.5 45.5 171.5C41.5 175.5 47 187 41.5 187C36 187 -2.00003 183.5 0.999966 187C3.99997 190.5 62 213 73 211.5C83.9999 210 119 182 138.5 187C158 192 171 204 186 203.5C201 203 207.5 184.5 218 177.5C228.5 170.5 247 187 267 187C287 187 318.5 178 318.5 163C318.5 148 73 156 69.5 162.5Z" fill="#F1F3F7"/>
<ellipse rx="18.4415" ry="7.0762" transform="matrix(-1 0 0 1 263.57 80.3655)" fill="white"/>
<ellipse rx="18.4415" ry="7.0762" transform="matrix(-1 0 0 1 180.583 80.3655)" fill="white"/>
<path d="M121.513 95.5287L95.8675 61.4113L27 81.3763L63.883 86.4308L63.883 105.385L79.7311 95.5287V111.956L121.513 95.5287Z" fill="#F1F3F7"/>
<path d="M300.036 100.006L330.787 69.3059L395.87 97.3869L358.545 97.9451L355.573 116.719L341.421 105.045L338.845 121.316L300.036 100.006Z" fill="#F1F3F7"/>
<path d="M202.589 35.8382C209.676 15.0789 213.444 2.85994 228.145 3.61053C236.706 5.03957 239.291 11.3523 244.106 22.0983C245.745 25.4134 234.325 28.6887 202.589 35.8382Z" fill="#F1F3F7"/>
<path d="M197.214 36.1149C189.936 15.4066 186.055 3.21489 171.361 4.06996C162.813 5.5598 160.287 11.8907 155.571 22.6706C153.962 25.9972 165.412 29.1913 197.214 36.1149Z" fill="#F1F3F7"/>
<ellipse rx="7.49186" ry="6.82348" transform="matrix(-1 0 0 1 200.754 31.5902)" fill="#F1F3F7"/>
<path d="M189 114.638C202.091 119.982 208.516 119.262 218.993 114" stroke="white" stroke-width="4" stroke-linecap="round" stroke-linejoin="round"/>
</svg>
