<svg width="247" height="284" viewBox="0 0 247 284" fill="none" xmlns="http://www.w3.org/2000/svg">
<path d="M245.904 36.2017C231.171 53.2435 222.09 58.0375 202.384 61.1698C210.864 69.5268 214.523 71.4611 219.671 71.4507C241.026 71.4507 249.907 59.4538 245.904 36.2017Z" fill="#F1F3F7"/>
<path d="M98.3573 224C83.6248 241.042 74.5432 245.836 54.8379 248.968C63.3175 257.325 66.9764 259.259 72.1249 259.249C93.4794 259.249 102.36 247.252 98.3573 224Z" fill="#F1F3F7"/>
<path d="M173.934 281.015C187.077 262.719 195.691 257.129 215.035 252.239C205.839 244.678 202.022 243.08 196.895 243.553C175.627 245.47 167.859 258.216 173.934 281.015Z" fill="#F1F3F7"/>
<path d="M215.248 29.0566C213.316 44.3014 214.355 50.7904 221.757 56.9817L206.753 68.9929C197.188 52.2451 201.589 43.7282 215.248 29.0566Z" fill="#F1F3F7"/>
<path d="M30.6108 161.813C34.5878 158.366 40.3746 152.945 44.3621 149.131C44.7215 148.787 45.0544 148.462 45.3549 148.159L42.9268 145.128C42.9268 145.128 -14.5107 192.391 12.7949 174.952C23.5453 168.086 25.6714 166.095 30.6108 161.813Z" fill="#F1F3F7"/>
<path d="M19.8712 181.467L47.859 151.285L45.3549 148.159C45.0544 148.462 44.7215 148.787 44.3621 149.131C42.145 151.288 36.5192 156.691 30.6108 161.813C17.5645 179.569 19.8712 181.467 19.8712 181.467Z" fill="#F1F3F7"/>
<path d="M7.4783 166.335C6.81167 168.814 42.9268 145.128 42.9268 145.128L39.8916 141.338C39.8916 141.338 8.14493 163.856 7.4783 166.335Z" fill="#F1F3F7"/>
<path d="M96.8466 176.245C96.8466 176.245 83.0805 98.4392 86.4722 65.0453C89.8638 31.6515 129.082 40.6356 141.337 40.6356C153.592 40.6356 180.64 53.5185 180.64 72.3343C180.64 91.1502 167.473 176.245 167.473 176.245H96.8466Z" fill="#F1F3F7"/>
<rect width="9.65263" height="27.1837" transform="matrix(0.958967 -0.283517 0.291048 0.956708 100.914 17.5032)" fill="#F1F3F7"/>
<rect width="9.6604" height="27.1613" transform="matrix(0.98755 0.157308 -0.16175 0.986832 148.962 14.9766)" fill="#F1F3F7"/>
<ellipse cx="102.846" cy="9.52677" rx="9.66387" ry="9.52677" fill="#F1F3F7"/>
<ellipse cx="154.548" cy="12.8611" rx="9.66387" ry="9.52677" fill="#F1F3F7"/>
<path d="M172.909 103.842C190.675 94.7856 198.693 86.1339 207.699 60.9713L218.088 69.5454C212.39 96.0454 202.495 108.876 172.909 128.135V103.842Z" fill="#F1F3F7"/>
<path d="M120.939 179.863C122.89 199.708 128.02 210.33 148.163 227.895L136.389 234.44C113.795 219.467 105.458 205.573 98.3201 171L120.939 179.863Z" fill="#F1F3F7"/>
<path d="M153.129 192.4C164.492 208.786 163.984 230.625 167.838 243.995C171.692 257.364 176.694 243.995 176.694 243.995C184.217 217.954 181.573 201.968 164.627 171L153.129 192.4Z" fill="#F1F3F7"/>
<path d="M136.021 221.594C123.138 230.753 114.926 233.302 97.5904 230.807L97.341 240.975C113.865 246.225 150.722 235.547 148.78 230.024C146.838 224.5 136.021 221.594 136.021 221.594Z" fill="#F1F3F7"/>
<path d="M184.111 267.895C176.046 252.09 174.655 242.264 180.702 222.119L169.152 221.057C160.114 240.042 165.485 284.083 172.142 282.223C178.799 280.363 184.111 267.895 184.111 267.895Z" fill="#F1F3F7"/>
<path d="M90.6938 117.113C71.3991 122.318 61.722 129.131 47.5732 151.889L39.235 141.367C50.4324 116.621 62.8325 106.107 95.8513 93.3532L90.6938 117.113Z" fill="#F1F3F7"/>
<path fill-rule="evenodd" clip-rule="evenodd" d="M148.763 61.3146L113.96 65.1604C117.604 79.5328 125.869 89.5423 134.247 88.6165C142.625 87.6907 148.437 76.1257 148.763 61.3146Z" fill="white"/>
<path d="M96 173C98.3347 187.115 106.727 203 128.691 203C150.655 203 165 178 166.5 173H96Z" fill="#F1F3F7"/>
</svg>
