<svg width="252" height="80" viewBox="0 0 252 80" fill="none" xmlns="http://www.w3.org/2000/svg">
<g clip-path="url(#clip0)">
<path d="M98.1045 22.6676H111.62V68.1488H124.547V22.6676H138.013V11.2974H98.1045V22.6676ZM142.682 11.2974V68.1488H155.658V45.7036L172.958 68.1488H189.423L169.862 44.6699C176.841 42.4549 181.51 36.7451 181.51 28.1805C181.51 17.0071 173.548 11.2974 162.981 11.2974H142.682ZM155.658 36.499V21.634H157.132C162.047 21.634 167.896 21.9785 167.896 29.0665C167.896 36.1545 162.047 36.499 157.132 36.499H155.658ZM238.916 68.1488H251.842L246.73 11.2974H232.969L220.387 44.0792L207.805 11.2974H194.043L188.931 68.1488H201.858L204.561 34.4317H204.905L216.553 67.8042H224.22L235.869 34.4317H236.213L238.916 68.1488Z" fill="#333333" fill-opacity="0.8"/>
<path d="M72.8766 34.2234C69.6654 34.2234 67.0145 36.2822 66.5718 39.9424H49.1917C49.1917 37.1973 48.6269 36.091 47.6604 34.6388L62.0717 20.0484C62.5964 20.2598 63.1658 20.3266 63.7661 20.3266C66.2821 20.3266 68.3209 18.2495 68.3209 15.723C68.3209 13.1966 66.2821 11.1332 63.7661 11.1332C61.25 11.1332 59.2113 13.1737 59.2113 15.7011C59.2113 16.8806 59.6677 17.9411 60.3974 18.7527L46.3522 32.86C44.9257 31.4975 43.0646 30.5879 40.9931 30.3811V12.8754C44.0821 12.4307 46.4588 9.76975 46.4588 6.54331C46.4588 3.00575 43.6039 0.138 40.0821 0.138C36.5603 0.138 33.7054 3.00575 33.7054 6.54331C33.7054 9.76975 36.0821 12.4307 39.1712 12.8754V30.3802C37.2263 30.5742 35.4672 31.3886 34.0771 32.6156L20.4865 18.965C21.3337 18.1342 21.863 16.9775 21.863 15.6937C21.863 13.1664 19.8242 11.1185 17.3082 11.1185C14.7921 11.1185 12.7534 13.1664 12.7534 15.6937C12.7534 18.2211 14.7921 20.269 17.3082 20.269C17.8721 20.269 18.4068 20.1527 18.9051 19.9643L32.8354 34.1859C31.6712 35.7222 30.9725 37.1973 30.9725 39.9424H12.6805C12.2378 36.2822 9.58782 34.2234 6.3767 34.2234C2.85494 34.2234 0 36.9767 0 40.5143C0 44.0528 2.85494 47.0916 6.3767 47.0916C9.58873 47.0916 12.2378 44.5176 12.6805 41.7725H31.1547C31.5009 42.6875 32.3299 44.7921 33.484 46.0119L20.349 59.0915C19.5418 58.3586 18.4824 57.8434 17.3082 57.8434C14.7921 57.8434 12.7534 59.8629 12.7534 62.3902C12.7534 64.9176 14.7921 66.9508 17.3082 66.9508C19.8242 66.9508 21.863 64.8956 21.863 62.3683C21.863 61.7653 21.74 61.1888 21.5296 60.6626L35.0299 47.0999C36.2379 47.9106 37.6489 48.4377 39.1712 48.5896V67.0094C36.0821 67.4541 33.7054 70.1169 33.7054 73.3424C33.7054 76.8809 36.5603 79.7477 40.0821 79.7477C43.6039 79.7477 46.4588 76.8809 46.4588 73.3424C46.4588 70.1169 44.0821 67.4541 40.9931 67.0094V48.5896C42.712 48.4175 44.2825 47.7605 45.5861 46.765L59.5156 60.7569C59.3279 61.2574 59.2122 61.7946 59.2122 62.361C59.2122 64.8883 61.2509 66.9362 63.767 66.9362C66.2831 66.9362 68.3218 64.8883 68.3218 62.361C68.3218 59.8336 66.2831 57.7857 63.767 57.7857C62.4898 57.7857 61.3384 58.3174 60.5112 59.1684L46.9207 45.7456C47.9482 44.5716 48.687 42.6875 49.0086 41.7725H66.5718C67.0145 44.5176 69.6654 47.034 72.8766 47.034C76.3983 47.034 79.2533 44.1672 79.2533 40.6287C79.2533 37.0911 76.3983 34.2234 72.8766 34.2234Z" fill="#333333" fill-opacity="0.8"/>
</g>
<defs>
<clipPath id="clip0">
<rect width="251.969" height="80" fill="white"/>
</clipPath>
</defs>
</svg>
