<svg width="350" height="70" viewBox="0 0 350 70" fill="none" xmlns="http://www.w3.org/2000/svg">
<path d="M48.2436 56.6123L29.2235 30.3493V49.4516H36.832V68.3143H1.64551V49.4516H8.77765V20.0811H1.64551V1.21706H29.2844L48.3368 27.7193L67.4302 1.21706H95.067V20.0811H87.9341V49.4516H95.067V68.3143H59.8826V49.4516H67.4888V30.3493L48.2436 56.6123Z" fill="#333333" fill-opacity="0.8"/>
<path d="M236.349 2.13922C232.657 2.13922 229.478 4.39495 229.478 8.42216C229.478 12.6006 232.807 13.9726 234.579 14.6125C235.434 14.9478 236.349 15.2216 237.208 15.5548C238.244 15.9862 240.594 16.9586 240.594 19.3974C240.594 21.7177 238.582 22.6906 236.288 22.6906C233.054 22.6906 231.066 20.7996 229.874 17.2957L228.775 17.4139L229.088 21.6559L230.883 22.9686C231.736 23.5165 233.539 24.6744 236.47 24.6744C241.018 24.6744 244.072 21.5978 244.072 17.8773C244.072 15.2851 242.667 13.3943 240.958 12.3865C240.075 11.8693 239.069 11.5301 237.847 11.1376C235.434 10.3424 232.899 9.48387 232.899 6.92445C232.899 5.2174 234.241 4.12004 236.531 4.12004C238.242 4.12004 239.707 4.74341 240.744 6.0845C241.598 7.21702 241.876 7.86988 242.242 9.27225L243.305 9.06143L242.606 2.65714L241.296 3.59942C239.467 2.44032 237.786 2.13968 236.348 2.13968L236.349 2.13922ZM320.324 2.28935C313.4 2.25664 309.461 7.56438 309.461 13.4498C309.461 20.3144 314.357 24.8273 320.615 24.8273C326.324 24.8273 331.392 20.9249 331.392 13.4816C331.392 6.95437 326.843 2.31993 320.324 2.28918L320.324 2.28935ZM278.045 2.56405V3.75228C280.12 3.87493 280.15 3.93512 281.706 6.25332L287.439 15.1299V18.9085C287.411 21.2594 287.411 21.8078 286.922 22.2943C286.493 22.7215 285.853 22.7843 284.175 22.9683V24.1277H294.789V22.9683C291.588 22.7843 291.557 22.4808 291.557 18.5764V14.0886L294.911 8.47963C297.382 4.45454 298.02 3.81558 300.187 3.75229V2.56406H291.771V3.75229C293.265 3.84428 294.147 3.87533 294.147 4.91177C294.147 5.40239 293.846 6.04225 293.294 7.10944L290.247 12.4692L286.951 7.07739C286.403 6.16155 286.008 5.49027 286.008 4.91177C286.008 3.87532 287.013 3.81566 289.27 3.75229V2.56406H278.045L278.045 2.56405ZM208.547 2.58641V3.74909C210.315 3.89832 210.896 4.11374 211.048 5.30146C211.14 6.00264 211.169 6.9149 211.169 9.50497V17.2956C211.169 18.1808 211.168 19.183 211.137 20.0681C211.107 22.3822 210.865 22.7522 208.547 22.9301V24.1279H217.538V22.9301C214.946 22.8749 214.943 22.209 214.913 17.2701L214.916 14.4721C216.96 14.5048 217.386 14.3359 218.666 17.0465L219.857 19.5795C221.566 23.206 223.244 24.6103 227.3 24.6103C227.788 24.6103 228.242 24.5823 228.702 24.5496V23.8182C226.962 23.579 226.233 22.9951 224.859 20.4643L221.046 13.8331C224.004 12.9153 225.284 10.2161 225.284 8.14108C225.284 5.15448 223.609 2.62482 218.302 2.62482L208.547 2.58649L208.547 2.58641ZM189.615 2.5896V3.74907C191.171 3.90444 191.841 3.99426 192.056 4.99799C192.207 5.66851 192.238 8.04673 192.238 8.90124V16.4714C192.238 17.0499 192.207 19.6435 192.177 20.1608C192.116 22.5117 191.841 22.7218 189.615 22.9365V24.128H206.027C206.027 22.5743 206.299 20.0093 206.483 18.5478H205.445C204.711 22.391 202.547 22.2019 199.434 22.2019C196.568 22.2019 195.99 21.4407 195.99 20.0363V14.0154H198.309C200.963 14.0154 201.724 14.2427 201.724 16.6569H202.762V9.54661H201.724C201.511 11.4682 201.114 12.0956 198.338 12.0956H195.99V4.50936H198.645C202.302 4.50936 203.614 4.78571 204.1 7.71314H205.078L204.953 2.58971H189.615L189.615 2.5896ZM256.657 2.5896L256.475 8.62984H257.606C257.788 4.78661 259.401 4.87673 261.841 4.87673H264.528V20.739C264.528 22.4499 263.98 23.1837 261.995 23.2145V24.128H270.903L270.9 23.2145C268.917 23.1838 268.37 22.4501 268.37 20.739V4.87673H271.053C273.494 4.87673 275.11 4.78665 275.292 8.62984H276.423L276.238 2.5896H256.657H256.657ZM106.018 2.59599V3.75228C107.635 3.84427 108.305 4.12126 108.487 5.4644C108.548 6.01226 108.549 7.04424 108.579 9.36454V14.242C108.579 17.7213 108.611 20.9569 111.812 23.1218C113.825 24.4649 116.264 24.6422 117.456 24.6422C118.948 24.6422 124.594 24.3412 126.058 18.5477C126.424 16.992 126.511 15.3712 126.572 13.7276C126.603 12.8139 126.848 6.83519 126.879 6.31398C127.002 4.18385 127.429 3.72364 129.441 3.75226V2.59597H121.235V3.75226C123.158 3.90763 124.162 3.96564 124.285 5.91788C124.316 6.62111 124.317 9.1825 124.317 9.97764C124.317 12.4779 124.287 16.2581 123.678 18.2697C122.946 20.8005 121.253 22.4029 118.175 22.4029C117.228 22.4029 115.354 22.1965 114.252 20.5918C112.87 18.5701 112.821 16.3185 112.821 13.6956V8.63283C112.852 4.05776 112.849 3.96683 115.715 3.7521V2.59581H106.018L106.018 2.59599ZM131.069 2.59599V3.75228C132.504 3.87494 132.991 4.09073 134.183 5.18646C134.153 7.41471 134.06 20.1906 133.755 21.624C133.512 22.8444 132.839 22.8768 131.069 22.9688V24.1282H139.853V22.9688C136.559 22.6355 136.317 22.5129 136.317 19.0336V7.86684L144.823 18.3629C145.798 19.5527 146.777 20.7744 147.752 21.9947L149.672 24.4032H150.956L151.262 7.78082C151.293 4.27285 151.504 3.7837 153.853 3.75295V2.59666H145.372V3.75295C148.79 3.87561 148.881 4.05933 148.912 7.47728V17.1141L142.903 9.66858C139.733 5.7354 139.335 5.15614 137.534 2.59671H131.069L131.069 2.59599ZM156.173 2.59599V3.75228C158.703 4.12025 158.704 4.23844 158.734 8.72558V17.4456V20.1926C158.704 22.4515 158.274 22.6924 156.173 22.9684V24.1279H165.113V22.9684C163.439 22.8458 162.827 22.5412 162.676 21.2308C162.615 20.5889 162.583 18.1783 162.583 17.4137V8.72558C162.583 4.11992 162.582 3.99955 165.113 3.75228V2.59599H156.173H156.173ZM167.164 2.59599V3.75228C169.329 4.09163 169.511 4.57843 170.974 8.66491L176.861 24.5559H178.021L184.578 8.90449C186.347 4.63802 186.623 4.05892 188.696 3.75228V2.59599H181.161V3.75228C182.502 3.78294 184.029 3.84274 184.029 5.40045C184.029 5.94832 183.663 6.92381 183.387 7.68431L178.998 19.0012L175.245 8.05473C174.667 6.25381 174.51 5.73489 174.51 5.1257C174.51 3.87461 175.641 3.81559 177.379 3.75221V2.59593H167.164L167.164 2.59599ZM245.482 2.59599V3.75228C248.015 4.12025 248.017 4.23844 248.05 8.72558V17.4456V20.1926C248.017 22.4515 247.588 22.6924 245.482 22.9684V24.1279H254.423V22.9684C252.748 22.8458 252.137 22.5412 251.985 21.2308C251.924 20.5889 251.893 18.1783 251.893 17.4137V8.72558C251.893 4.11992 251.892 3.99955 254.423 3.75228V2.59599H245.482H245.482ZM332.444 2.74931V3.9056C333.999 4.05688 334.668 4.15078 334.881 5.15452C335.036 5.82708 335.066 8.2044 335.066 9.06104L335.063 16.6281C335.063 17.2066 335.032 19.797 334.999 20.3142C334.942 22.659 334.664 22.8752 332.44 23.09V24.2782H341.359V23.09C339.132 22.8753 338.858 22.659 338.797 20.3142L338.81 14.1686H341.193C343.599 14.1686 344.879 14.3988 345.032 16.807H346.073V9.69999H345.032C344.909 12.0203 344.272 12.249 341.649 12.249H338.81L338.813 4.79374C339.578 4.69971 340.004 4.66917 341.378 4.66917C345.587 4.66917 346.943 4.65001 347.508 8.02308H348.578L348.239 2.74952H332.444L332.444 2.74931ZM320.354 4.26974C322.149 4.21455 323.516 5.30682 324.209 6.04891C325.791 7.73748 326.567 10.1191 326.653 12.8972C326.738 15.7 326.425 17.8445 324.902 20.1832C323.571 22.2029 321.856 22.8091 320.638 22.844C319.422 22.844 317.692 22.2951 316.3 20.3142C314.708 18.0246 314.33 15.8946 314.33 13.0858C314.33 10.3097 315.028 7.89644 316.559 6.16077C317.232 5.4003 318.559 4.2699 320.354 4.2699V4.26974ZM216.243 4.49347C220.207 4.49347 221.466 6.65483 221.335 9.15702C221.245 10.8804 219.392 12.8033 216.943 12.7952C216.334 12.7952 215.509 12.6997 214.93 12.5812V4.61815C215.358 4.52616 215.693 4.49358 216.243 4.49358L216.243 4.49347ZM301.25 33.1263C299.635 34.3304 298.574 34.8828 294.792 36.1257L295.297 36.9114L286.487 61.0878C285.24 64.4976 284.132 65.1938 280.718 65.3329V67.0865H294.146V65.3329C292.164 65.2409 289.716 65.1035 289.716 62.7935C289.716 62.1067 289.9 61.4571 290.131 60.762L291.141 57.948H302.627L303.604 61.2731C303.788 61.8721 303.975 62.566 303.975 63.2119C303.975 65.0108 302.266 65.1938 300.052 65.3329V67.0865H314.324H315.276H327.612V65.3329C322.628 64.8238 322.259 64.64 322.259 59.3821V42.4849L335.131 58.3632C336.609 60.1662 338.082 62.0081 339.558 63.854L342.468 67.5017H344.407L344.867 42.3572C344.912 37.0544 345.236 36.3099 348.789 36.2691V34.5123H335.961V36.2691C341.129 36.453 341.268 36.7281 341.315 41.8941V56.4723L332.224 45.2128C327.426 39.2619 326.826 38.3882 324.105 34.5123H314.324V36.2691C316.493 36.453 317.23 36.7748 319.029 38.4347C318.982 41.8017 318.844 61.131 318.384 63.3044C318.049 64.9736 317.119 65.1629 314.979 65.288C311.801 64.8873 311.177 63.8722 309.926 60.0719L302.729 37.9234C301.991 35.6175 301.899 35.3418 301.251 33.1258L301.25 33.1263ZM265.932 33.6789C257.084 33.6789 250.025 40.4602 250.025 50.8851C250.025 59.4179 255.382 67.9131 266.593 67.9131C272.988 67.9131 276.601 65.6492 279.134 64.0833V61.6365C279.218 55.4546 279.217 54.624 282.165 54.44V52.6864H269.043V54.44C272.658 54.8121 273.218 54.9014 273.365 59.0493C273.414 60.4844 273.281 61.2674 272.701 62.1445C272.533 62.3285 270.663 64.866 267.05 64.866C260.697 64.866 257.005 58.4548 257.005 50.981C257.005 41.612 261.738 36.8148 267.427 36.8148C270.706 36.8148 272.784 38.175 273.863 39.2361C276.312 41.683 277.312 43.9196 277.974 45.8575L279.303 45.6276L279.054 35.4286L277.354 37.3674C274.697 35.7524 271.496 33.6781 265.932 33.6781V33.6789ZM182.338 33.7268C171.338 33.7268 165.946 42.4042 165.946 51.2143C165.946 60.7202 172.305 67.961 182.121 67.961C191.108 67.961 194.57 62.1924 196.016 59.8415L194.077 58.3722C192.368 60.8171 190.23 63.9972 184.533 63.9972C176.992 63.9972 173.178 57.2607 173.178 50.1058C173.178 41.6608 177.826 36.8691 183.699 36.8691C187.117 36.8691 189.528 38.9874 190.538 40.0504C192.641 42.3564 193.474 43.8762 194.042 45.7711L195.489 45.49L195.313 35.6169L193.077 37.6484C191.195 36.1765 188.124 33.726 182.338 33.726L182.338 33.7268ZM107.303 34.5126V36.2694C110.208 36.3103 110.855 36.5443 110.855 39.7701C110.855 40.9252 110.857 42.4943 110.81 43.5553L110.35 57.2104C110.301 59.0093 110.165 61.7336 110.073 62.6086C109.887 64.8245 108.871 65.1942 106.239 65.3332V67.0868H117.547V65.3332C114.086 65.0572 113.717 64.4563 113.717 61.2734L113.96 42.1178L124.421 67.5011H127.283L138.676 42.4465V58.8301C138.629 64.8749 138.631 65.0574 134.524 65.3335V67.0872H148.779V65.3335C146.196 65.1025 145.274 64.6415 145.09 62.2416C144.951 60.5797 144.905 57.8137 144.905 55.5977V42.1726C144.86 37.0966 144.903 36.6808 148.779 36.4519V34.5131H138.861L127.698 59.2422L117.543 34.5131H107.303L107.303 34.5126ZM151.973 34.5126V36.2694C155.802 36.8213 155.8 37.0044 155.847 43.7853V56.9835V61.1297C155.8 64.5477 155.158 64.9183 151.973 65.3332V67.0868H165.497V65.3332C162.96 65.1492 162.035 64.6841 161.805 62.7011C161.713 61.7342 161.667 58.0875 161.667 56.9325V43.7853C161.667 36.8203 161.668 36.6373 165.497 36.2694V34.5126H151.973H151.973ZM198.422 34.5126V36.2694C200.959 36.4963 201.879 36.7738 202.063 38.7097C202.202 39.7257 202.204 41.8486 202.204 43.9705V57.6289C202.204 58.7798 202.204 59.9332 202.159 61.0881C202.159 64.2219 202.112 65.0102 198.422 65.3332V67.0868H212.365V65.3332C208.166 64.8732 208.074 64.8737 208.027 58.0888V52.1157C210.842 51.9747 213.037 51.8858 215.849 51.8858C218.525 51.8858 220.673 52.0238 223.257 52.1157V58.0888C223.257 60.4438 223.256 61.6886 223.164 62.6086C222.884 64.8736 222.009 64.9591 218.734 65.3332V67.0868H232.858V65.3332C230.459 65.1022 229.49 64.7816 229.259 63.0684C229.12 62.1056 229.073 57.9977 229.073 56.7057V42.9548C229.073 36.7749 229.072 36.7294 232.858 36.2694V34.5126H218.734V36.2694C223.164 36.6823 223.21 36.9113 223.257 42.8621V48.3337C220.487 48.4706 218.295 48.5636 215.527 48.5636C212.806 48.5636 210.842 48.4706 208.027 48.3337V43.833C208.027 41.8931 208.074 39.4938 208.305 38.4348C208.628 36.6359 209.642 36.5451 212.365 36.2692V34.5124H198.422L198.422 34.5126ZM235.554 34.5126V36.2694C239.387 36.8213 239.388 37.0044 239.435 43.7853V56.9835V61.1297C239.388 64.5477 238.741 64.9183 235.554 65.3332V67.0868H249.094V65.3332C246.559 65.1492 245.639 64.6841 245.408 62.7011C245.314 61.7342 245.264 58.0875 245.264 56.9325V43.7853C245.264 36.8203 245.265 36.6373 249.094 36.2694V34.5126H235.554ZM297.134 40.9393L301.705 54.4411H292.346L297.134 40.9393H297.134Z" fill="#333333" fill-opacity="0.8"/>
</svg>
